<?xml version="1.0" encoding="UTF-8" standalone="no"?>
<!DOCTYPE svg PUBLIC "-//W3C//DTD SVG 1.1//EN"
 "http://www.w3.org/Graphics/SVG/1.1/DTD/svg11.dtd">
<!-- Generated by graphviz version 2.43.0 (0)
 -->
<!-- Title: G Pages: 1 -->
<svg width="1200pt" height="732pt"
 viewBox="0.00 0.00 1200.00 732.00" xmlns="http://www.w3.org/2000/svg" xmlns:xlink="http://www.w3.org/1999/xlink">
<g id="graph0" class="graph" transform="scale(1 1) rotate(0) translate(4 728)">
<title>G</title>
<polygon fill="white" stroke="transparent" points="-4,4 -4,-728 1196,-728 1196,4 -4,4"/>
<g id="clust1" class="cluster">
<title>cluster_root</title>
<g id="a_clust1"><a xlink:title="eventq_index=0&#10;full_system=false&#10;sim_quantum=0&#10;time_sync_enable=false&#10;time_sync_period=100000000000&#10;time_sync_spin_threshold=100000000">
<path fill="#bab6ae" stroke="#000000" d="M20,-8C20,-8 1172,-8 1172,-8 1178,-8 1184,-14 1184,-20 1184,-20 1184,-704 1184,-704 1184,-710 1178,-716 1172,-716 1172,-716 20,-716 20,-716 14,-716 8,-710 8,-704 8,-704 8,-20 8,-20 8,-14 14,-8 20,-8"/>
<text text-anchor="middle" x="596" y="-700.8" font-family="Arial" font-size="14.00" fill="#000000">root </text>
<text text-anchor="middle" x="596" y="-685.8" font-family="Arial" font-size="14.00" fill="#000000">: Root</text>
</a>
</g>
</g>
<g id="clust2" class="cluster">
<title>cluster_system</title>
<g id="a_clust2"><a xlink:title="auto_unlink_shared_backstore=false&#10;cache_line_size=128&#10;eventq_index=0&#10;exit_on_work_items=false&#10;init_param=0&#10;m5ops_base=0&#10;mem_mode=timing&#10;mem_ranges=0:2147483648&#10;memories=system.mem_ctrl.dram&#10;mmap_using_noreserve=false&#10;multi_thread=false&#10;&#10;um_work_ids=16&#10;&#13;eadfile=&#10;&#13;edirect_paths=&#10;shadow_rom_ranges=&#10;shared_backstore=&#10;symbolfile=&#10;thermal_components=&#10;thermal_model=Null&#10;work_begin_ckpt_count=0&#10;work_begin_cpu_id_exit=&#45;1&#10;work_begin_exit_count=0&#10;work_cpus_ckpt_count=0&#10;work_end_ckpt_count=0&#10;work_end_exit_count=0&#10;work_item_id=&#45;1&#10;workload=system.workload">
<path fill="#e4e7eb" stroke="#000000" d="M28,-16C28,-16 1164,-16 1164,-16 1170,-16 1176,-22 1176,-28 1176,-28 1176,-658 1176,-658 1176,-664 1170,-670 1164,-670 1164,-670 28,-670 28,-670 22,-670 16,-664 16,-658 16,-658 16,-28 16,-28 16,-22 22,-16 28,-16"/>
<text text-anchor="middle" x="596" y="-654.8" font-family="Arial" font-size="14.00" fill="#000000">system </text>
<text text-anchor="middle" x="596" y="-639.8" font-family="Arial" font-size="14.00" fill="#000000">: System</text>
</a>
</g>
</g>
<g id="clust6" class="cluster">
<title>cluster_system_membus</title>
<g id="a_clust6"><a xlink:title="clk_domain=system.clk_domain&#10;eventq_index=0&#10;forward_latency=4&#10;frontend_latency=3&#10;header_latency=1&#10;max_outstanding_snoops=512&#10;max_routing_table_size=512&#10;point_of_coherency=true&#10;point_of_unification=true&#10;power_model=&#10;power_state=system.membus.power_state&#10;&#13;esponse_latency=2&#10;snoop_filter=system.membus.snoop_filter&#10;snoop_response_latency=4&#10;system=system&#10;use_default_range=false&#10;width=16">
<path fill="#6f798c" stroke="#000000" d="M144,-450C144,-450 380,-450 380,-450 386,-450 392,-456 392,-462 392,-462 392,-528 392,-528 392,-534 386,-540 380,-540 380,-540 144,-540 144,-540 138,-540 132,-534 132,-528 132,-528 132,-462 132,-462 132,-456 138,-450 144,-450"/>
<text text-anchor="middle" x="262" y="-524.8" font-family="Arial" font-size="14.00" fill="#000000">membus </text>
<text text-anchor="middle" x="262" y="-509.8" font-family="Arial" font-size="14.00" fill="#000000">: SystemXBar</text>
</a>
</g>
</g>
<g id="clust9" class="cluster">
<title>cluster_system_cpu</title>
<g id="a_clust9"><a xlink:title="LFSTSize=1024&#10;LQEntries=630&#10;LSQCheckLoads=true&#10;LSQDepCheckShift=4&#10;SQEntries=100&#10;SSITSize=1024&#10;activity=0&#10;backComSize=5&#10;branchPred=system.cpu.branchPred&#10;cacheLoadPorts=200&#10;cacheStorePorts=200&#10;checker=Null&#10;clk_domain=system.clk_domain&#10;commitToDecodeDelay=1&#10;commitToFetchDelay=1&#10;commitToIEWDelay=1&#10;commitToRenameDelay=1&#10;commitWidth=8&#10;cpu_id=&#45;1&#10;decodeToFetchDelay=1&#10;decodeToRenameDelay=1&#10;decodeWidth=8&#10;decoder=system.cpu.decoder&#10;dispatchWidth=8&#10;do_checkpoint_insts=true&#10;do_statistics_insts=true&#10;eventq_index=0&#10;fetchBufferSize=64&#10;fetchQueueSize=32&#10;fetchToDecodeDelay=1&#10;fetchTrapLatency=1&#10;fetchWidth=8&#10;forwardComSize=5&#10;fuPool=system.cpu.fuPool&#10;function_trace=false&#10;function_trace_start=0&#10;iewToCommitDelay=1&#10;iewToDecodeDelay=1&#10;iewToFetchDelay=1&#10;iewToRenameDelay=1&#10;interrupts=system.cpu.interrupts&#10;isa=system.cpu.isa&#10;issueToExecuteDelay=1&#10;issueWidth=12&#10;max_insts_all_threads=0&#10;max_insts_any_thread=0&#10;mmu=system.cpu.mmu&#10;&#10;eedsTSO=false&#10;&#10;umIQEntries=630&#10;&#10;umPhysCCRegs=0&#10;&#10;umPhysFloatRegs=256&#10;&#10;umPhysIntRegs=256&#10;&#10;umPhysMatRegs=2&#10;&#10;umPhysVecPredRegs=32&#10;&#10;umPhysVecRegs=384&#10;&#10;umROBEntries=630&#10;&#10;umRobs=1&#10;&#10;umThreads=1&#10;power_gating_on_idle=false&#10;power_model=&#10;power_state=system.cpu.power_state&#10;progress_interval=0&#10;pwr_gating_latency=300&#10;&#13;enameToDecodeDelay=1&#10;&#13;enameToFetchDelay=1&#10;&#13;enameToIEWDelay=2&#10;&#13;enameToROBDelay=1&#10;&#13;enameWidth=12&#10;simpoint_start_insts=&#10;smtCommitPolicy=RoundRobin&#10;smtFetchPolicy=RoundRobin&#10;smtIQPolicy=Partitioned&#10;smtIQThreshold=100&#10;smtLSQPolicy=Partitioned&#10;smtLSQThreshold=100&#10;smtNumFetchingThreads=1&#10;smtROBPolicy=Partitioned&#10;smtROBThreshold=100&#10;socket_id=0&#10;squashWidth=32&#10;store_set_clear_period=250000&#10;switched_out=false&#10;syscallRetryLatency=10000&#10;system=system&#10;tracer=system.cpu.tracer&#10;trapLatency=13&#10;wbWidth=8&#10;workload=system.cpu.workload">
<path fill="#bbc6d9" stroke="#000000" d="M784,-24C784,-24 1156,-24 1156,-24 1162,-24 1168,-30 1168,-36 1168,-36 1168,-240 1168,-240 1168,-246 1162,-252 1156,-252 1156,-252 784,-252 784,-252 778,-252 772,-246 772,-240 772,-240 772,-36 772,-36 772,-30 778,-24 784,-24"/>
<text text-anchor="middle" x="970" y="-236.8" font-family="Arial" font-size="14.00" fill="#000000">cpu </text>
<text text-anchor="middle" x="970" y="-221.8" font-family="Arial" font-size="14.00" fill="#000000">: RiscvO3CPU</text>
</a>
</g>
</g>
<g id="clust98" class="cluster">
<title>cluster_system_cpu_icache</title>
<g id="a_clust98"><a xlink:title="addr_ranges=0:18446744073709551615&#10;assoc=4&#10;clk_domain=system.clk_domain&#10;clusivity=mostly_incl&#10;compressor=Null&#10;data_latency=1&#10;demand_mshr_reserve=1&#10;eventq_index=0&#10;is_read_only=false&#10;max_miss_count=0&#10;move_contractions=true&#10;mshrs=8&#10;partitioning_manager=Null&#10;power_model=&#10;power_state=system.cpu.icache.power_state&#10;prefetcher=system.cpu.icache.prefetcher&#10;&#13;eplace_expansions=true&#10;&#13;eplacement_policy=system.cpu.icache.replacement_policy&#10;&#13;esponse_latency=1&#10;sequential_access=false&#10;size=32768&#10;system=system&#10;tag_latency=1&#10;tags=system.cpu.icache.tags&#10;tgts_per_mshr=20&#10;warmup_percentage=0&#10;write_allocator=Null&#10;write_buffers=32&#10;writeback_clean=false">
<path fill="#bab6ae" stroke="#000000" d="M986,-32C986,-32 1148,-32 1148,-32 1154,-32 1160,-38 1160,-44 1160,-44 1160,-110 1160,-110 1160,-116 1154,-122 1148,-122 1148,-122 986,-122 986,-122 980,-122 974,-116 974,-110 974,-110 974,-44 974,-44 974,-38 980,-32 986,-32"/>
<text text-anchor="middle" x="1067" y="-106.8" font-family="Arial" font-size="14.00" fill="#000000">icache </text>
<text text-anchor="middle" x="1067" y="-91.8" font-family="Arial" font-size="14.00" fill="#000000">: L1ICache</text>
</a>
</g>
</g>
<g id="clust108" class="cluster">
<title>cluster_system_cpu_dcache</title>
<g id="a_clust108"><a xlink:title="addr_ranges=0:18446744073709551615&#10;assoc=4&#10;clk_domain=system.clk_domain&#10;clusivity=mostly_incl&#10;compressor=Null&#10;data_latency=2&#10;demand_mshr_reserve=1&#10;eventq_index=0&#10;is_read_only=false&#10;max_miss_count=0&#10;move_contractions=true&#10;mshrs=32&#10;partitioning_manager=Null&#10;power_model=&#10;power_state=system.cpu.dcache.power_state&#10;prefetcher=system.cpu.dcache.prefetcher&#10;&#13;eplace_expansions=true&#10;&#13;eplacement_policy=system.cpu.dcache.replacement_policy&#10;&#13;esponse_latency=2&#10;sequential_access=false&#10;size=65536&#10;system=system&#10;tag_latency=2&#10;tags=system.cpu.dcache.tags&#10;tgts_per_mshr=32&#10;warmup_percentage=0&#10;write_allocator=Null&#10;write_buffers=32&#10;writeback_clean=false">
<path fill="#bab6ae" stroke="#000000" d="M792,-32C792,-32 954,-32 954,-32 960,-32 966,-38 966,-44 966,-44 966,-110 966,-110 966,-116 960,-122 954,-122 954,-122 792,-122 792,-122 786,-122 780,-116 780,-110 780,-110 780,-44 780,-44 780,-38 786,-32 792,-32"/>
<text text-anchor="middle" x="873" y="-106.8" font-family="Arial" font-size="14.00" fill="#000000">dcache </text>
<text text-anchor="middle" x="873" y="-91.8" font-family="Arial" font-size="14.00" fill="#000000">: L1DCache</text>
</a>
</g>
</g>
<g id="clust121" class="cluster">
<title>cluster_system_l2cache</title>
<g id="a_clust121"><a xlink:title="addr_ranges=0:18446744073709551615&#10;assoc=16&#10;clk_domain=system.clk_domain&#10;clusivity=mostly_incl&#10;compressor=Null&#10;data_latency=5&#10;demand_mshr_reserve=1&#10;eventq_index=0&#10;is_read_only=false&#10;max_miss_count=0&#10;move_contractions=true&#10;mshrs=32&#10;partitioning_manager=Null&#10;power_model=&#10;power_state=system.l2cache.power_state&#10;prefetcher=system.l2cache.prefetcher&#10;&#13;eplace_expansions=true&#10;&#13;eplacement_policy=system.l2cache.replacement_policy&#10;&#13;esponse_latency=5&#10;sequential_access=false&#10;size=1048576&#10;system=system&#10;tag_latency=5&#10;tags=system.l2cache.tags&#10;tgts_per_mshr=12&#10;warmup_percentage=0&#10;write_allocator=Null&#10;write_buffers=8&#10;writeback_clean=false">
<path fill="#bab6ae" stroke="#000000" d="M410,-32C410,-32 752,-32 752,-32 758,-32 764,-38 764,-44 764,-44 764,-286 764,-286 764,-292 758,-298 752,-298 752,-298 410,-298 410,-298 404,-298 398,-292 398,-286 398,-286 398,-44 398,-44 398,-38 404,-32 410,-32"/>
<text text-anchor="middle" x="581" y="-282.8" font-family="Arial" font-size="14.00" fill="#000000">l2cache </text>
<text text-anchor="middle" x="581" y="-267.8" font-family="Arial" font-size="14.00" fill="#000000">: L2Cache</text>
</a>
</g>
</g>
<g id="clust129" class="cluster">
<title>cluster_system_l2cache_xbar</title>
<g id="a_clust129"><a xlink:title="clk_domain=system.clk_domain&#10;eventq_index=0&#10;forward_latency=0&#10;frontend_latency=1&#10;header_latency=1&#10;max_outstanding_snoops=512&#10;max_routing_table_size=512&#10;point_of_coherency=false&#10;point_of_unification=true&#10;power_model=&#10;power_state=system.l2cache.xbar.power_state&#10;&#13;esponse_latency=1&#10;snoop_filter=system.l2cache.xbar.snoop_filter&#10;snoop_response_latency=1&#10;system=system&#10;use_default_range=false&#10;width=32">
<path fill="#6f798c" stroke="#000000" d="M508,-162C508,-162 744,-162 744,-162 750,-162 756,-168 756,-174 756,-174 756,-240 756,-240 756,-246 750,-252 744,-252 744,-252 508,-252 508,-252 502,-252 496,-246 496,-240 496,-240 496,-174 496,-174 496,-168 502,-162 508,-162"/>
<text text-anchor="middle" x="626" y="-236.8" font-family="Arial" font-size="14.00" fill="#000000">xbar </text>
<text text-anchor="middle" x="626" y="-221.8" font-family="Arial" font-size="14.00" fill="#000000">: L2XBar</text>
</a>
</g>
</g>
<g id="clust132" class="cluster">
<title>cluster_system_l3cache</title>
<g id="a_clust132"><a xlink:title="addr_ranges=0:18446744073709551615&#10;assoc=16&#10;clk_domain=system.clk_domain&#10;clusivity=mostly_incl&#10;compressor=Null&#10;data_latency=20&#10;demand_mshr_reserve=1&#10;eventq_index=0&#10;is_read_only=false&#10;max_miss_count=0&#10;move_contractions=true&#10;mshrs=32&#10;partitioning_manager=Null&#10;power_model=&#10;power_state=system.l3cache.power_state&#10;prefetcher=Null&#10;&#13;eplace_expansions=true&#10;&#13;eplacement_policy=system.l3cache.replacement_policy&#10;&#13;esponse_latency=20&#10;sequential_access=false&#10;size=33554432&#10;system=system&#10;tag_latency=20&#10;tags=system.l3cache.tags&#10;tgts_per_mshr=12&#10;warmup_percentage=0&#10;write_allocator=Null&#10;write_buffers=16&#10;writeback_clean=false">
<path fill="#bab6ae" stroke="#000000" d="M36,-162C36,-162 378,-162 378,-162 384,-162 390,-168 390,-174 390,-174 390,-430 390,-430 390,-436 384,-442 378,-442 378,-442 36,-442 36,-442 30,-442 24,-436 24,-430 24,-430 24,-174 24,-174 24,-168 30,-162 36,-162"/>
<text text-anchor="middle" x="207" y="-426.8" font-family="Arial" font-size="14.00" fill="#000000">l3cache </text>
<text text-anchor="middle" x="207" y="-411.8" font-family="Arial" font-size="14.00" fill="#000000">: L3Cache</text>
</a>
</g>
</g>
<g id="clust138" class="cluster">
<title>cluster_system_l3cache_xbar</title>
<g id="a_clust138"><a xlink:title="clk_domain=system.clk_domain&#10;eventq_index=0&#10;forward_latency=0&#10;frontend_latency=1&#10;header_latency=1&#10;max_outstanding_snoops=512&#10;max_routing_table_size=512&#10;point_of_coherency=false&#10;point_of_unification=true&#10;power_model=&#10;power_state=system.l3cache.xbar.power_state&#10;&#13;esponse_latency=1&#10;snoop_filter=system.l3cache.xbar.snoop_filter&#10;snoop_response_latency=1&#10;system=system&#10;use_default_range=false&#10;width=32">
<path fill="#6f798c" stroke="#000000" d="M134,-306C134,-306 370,-306 370,-306 376,-306 382,-312 382,-318 382,-318 382,-384 382,-384 382,-390 376,-396 370,-396 370,-396 134,-396 134,-396 128,-396 122,-390 122,-384 122,-384 122,-318 122,-318 122,-312 128,-306 134,-306"/>
<text text-anchor="middle" x="252" y="-380.8" font-family="Arial" font-size="14.00" fill="#000000">xbar </text>
<text text-anchor="middle" x="252" y="-365.8" font-family="Arial" font-size="14.00" fill="#000000">: L2XBar</text>
</a>
</g>
</g>
<g id="clust141" class="cluster">
<title>cluster_system_mem_ctrl</title>
<g id="a_clust141"><a xlink:title="clk_domain=system.clk_domain&#10;command_window=10000&#10;disable_sanity_check=false&#10;dram=system.mem_ctrl.dram&#10;eventq_index=0&#10;mem_sched_policy=frfcfs&#10;min_reads_per_switch=16&#10;min_writes_per_switch=16&#10;power_model=&#10;power_state=system.mem_ctrl.power_state&#10;qos_policy=Null&#10;qos_priorities=1&#10;qos_priority_escalation=false&#10;qos_q_policy=fifo&#10;qos_requestors= &#160;&#160;&#160;&#160;&#160;&#160;&#160;&#160;&#160;&#160;&#160;&#160;&#160;&#160;&#10;qos_syncro_scheduler=false&#10;qos_turnaround_policy=Null&#10;static_backend_latency=10000&#10;static_frontend_latency=10000&#10;system=system&#10;write_high_thresh_perc=85&#10;write_low_thresh_perc=50">
<path fill="#bab6ae" stroke="#000000" d="M410,-306C410,-306 463,-306 463,-306 469,-306 475,-312 475,-318 475,-318 475,-384 475,-384 475,-390 469,-396 463,-396 463,-396 410,-396 410,-396 404,-396 398,-390 398,-384 398,-384 398,-318 398,-318 398,-312 404,-306 410,-306"/>
<text text-anchor="middle" x="436.5" y="-380.8" font-family="Arial" font-size="14.00" fill="#000000">mem_ctrl </text>
<text text-anchor="middle" x="436.5" y="-365.8" font-family="Arial" font-size="14.00" fill="#000000">: MemCtrl</text>
</a>
</g>
</g>
<!-- system_system_port -->
<g id="node1" class="node">
<title>system_system_port</title>
<path fill="#b6b8bc" stroke="#000000" d="M227.5,-624C227.5,-624 160.5,-624 160.5,-624 154.5,-624 148.5,-618 148.5,-612 148.5,-612 148.5,-600 148.5,-600 148.5,-594 154.5,-588 160.5,-588 160.5,-588 227.5,-588 227.5,-588 233.5,-588 239.5,-594 239.5,-600 239.5,-600 239.5,-612 239.5,-612 239.5,-618 233.5,-624 227.5,-624"/>
<text text-anchor="middle" x="194" y="-602.3" font-family="Arial" font-size="14.00" fill="#000000">system_port</text>
</g>
<!-- system_membus_cpu_side_ports -->
<g id="node2" class="node">
<title>system_membus_cpu_side_ports</title>
<path fill="#586070" stroke="#000000" d="M236,-494C236,-494 152,-494 152,-494 146,-494 140,-488 140,-482 140,-482 140,-470 140,-470 140,-464 146,-458 152,-458 152,-458 236,-458 236,-458 242,-458 248,-464 248,-470 248,-470 248,-482 248,-482 248,-488 242,-494 236,-494"/>
<text text-anchor="middle" x="194" y="-472.3" font-family="Arial" font-size="14.00" fill="#000000">cpu_side_ports</text>
</g>
<!-- system_system_port&#45;&gt;system_membus_cpu_side_ports -->
<g id="edge1" class="edge">
<title>system_system_port&#45;&gt;system_membus_cpu_side_ports</title>
<path fill="none" stroke="black" d="M194,-587.74C194,-566.36 194,-529.69 194,-504.44"/>
<polygon fill="black" stroke="black" points="197.5,-504.4 194,-494.4 190.5,-504.4 197.5,-504.4"/>
</g>
<!-- system_l3cache_mem_side -->
<g id="node15" class="node">
<title>system_l3cache_mem_side</title>
<path fill="#94918b" stroke="#000000" d="M100,-350C100,-350 44,-350 44,-350 38,-350 32,-344 32,-338 32,-338 32,-326 32,-326 32,-320 38,-314 44,-314 44,-314 100,-314 100,-314 106,-314 112,-320 112,-326 112,-326 112,-338 112,-338 112,-344 106,-350 100,-350"/>
<text text-anchor="middle" x="72" y="-328.3" font-family="Arial" font-size="14.00" fill="#000000">mem_side</text>
</g>
<!-- system_membus_cpu_side_ports&#45;&gt;system_l3cache_mem_side -->
<g id="edge2" class="edge">
<title>system_membus_cpu_side_ports&#45;&gt;system_l3cache_mem_side</title>
<path fill="none" stroke="black" d="M131.4,-452.75C126.54,-449.59 121.98,-446.03 118,-442 92.43,-416.16 80.23,-373.95 75.13,-350.35"/>
<polygon fill="black" stroke="black" points="130.01,-455.99 140.41,-457.99 133.53,-449.94 130.01,-455.99"/>
</g>
<!-- system_membus_mem_side_ports -->
<g id="node3" class="node">
<title>system_membus_mem_side_ports</title>
<path fill="#586070" stroke="#000000" d="M372,-494C372,-494 278,-494 278,-494 272,-494 266,-488 266,-482 266,-482 266,-470 266,-470 266,-464 272,-458 278,-458 278,-458 372,-458 372,-458 378,-458 384,-464 384,-470 384,-470 384,-482 384,-482 384,-488 378,-494 372,-494"/>
<text text-anchor="middle" x="325" y="-472.3" font-family="Arial" font-size="14.00" fill="#000000">mem_side_ports</text>
</g>
<!-- system_mem_ctrl_port -->
<g id="node18" class="node">
<title>system_mem_ctrl_port</title>
<path fill="#94918b" stroke="#000000" d="M448,-350C448,-350 418,-350 418,-350 412,-350 406,-344 406,-338 406,-338 406,-326 406,-326 406,-320 412,-314 418,-314 418,-314 448,-314 448,-314 454,-314 460,-320 460,-326 460,-326 460,-338 460,-338 460,-344 454,-350 448,-350"/>
<text text-anchor="middle" x="433" y="-328.3" font-family="Arial" font-size="14.00" fill="#000000">port</text>
</g>
<!-- system_membus_mem_side_ports&#45;&gt;system_mem_ctrl_port -->
<g id="edge3" class="edge">
<title>system_membus_mem_side_ports&#45;&gt;system_mem_ctrl_port</title>
<path fill="none" stroke="black" d="M365.8,-457.9C373.17,-453.5 380.31,-448.22 386,-442 407.45,-418.56 420.11,-383.81 426.79,-359.89"/>
<polygon fill="black" stroke="black" points="430.22,-360.61 429.37,-350.05 423.45,-358.83 430.22,-360.61"/>
</g>
<!-- system_cpu_icache_port -->
<g id="node4" class="node">
<title>system_cpu_icache_port</title>
<path fill="#959ead" stroke="#000000" d="M1147,-206C1147,-206 1085,-206 1085,-206 1079,-206 1073,-200 1073,-194 1073,-194 1073,-182 1073,-182 1073,-176 1079,-170 1085,-170 1085,-170 1147,-170 1147,-170 1153,-170 1159,-176 1159,-182 1159,-182 1159,-194 1159,-194 1159,-200 1153,-206 1147,-206"/>
<text text-anchor="middle" x="1116" y="-184.3" font-family="Arial" font-size="14.00" fill="#000000">icache_port</text>
</g>
<!-- system_cpu_icache_cpu_side -->
<g id="node6" class="node">
<title>system_cpu_icache_cpu_side</title>
<path fill="#94918b" stroke="#000000" d="M1139.5,-76C1139.5,-76 1092.5,-76 1092.5,-76 1086.5,-76 1080.5,-70 1080.5,-64 1080.5,-64 1080.5,-52 1080.5,-52 1080.5,-46 1086.5,-40 1092.5,-40 1092.5,-40 1139.5,-40 1139.5,-40 1145.5,-40 1151.5,-46 1151.5,-52 1151.5,-52 1151.5,-64 1151.5,-64 1151.5,-70 1145.5,-76 1139.5,-76"/>
<text text-anchor="middle" x="1116" y="-54.3" font-family="Arial" font-size="14.00" fill="#000000">cpu_side</text>
</g>
<!-- system_cpu_icache_port&#45;&gt;system_cpu_icache_cpu_side -->
<g id="edge4" class="edge">
<title>system_cpu_icache_port&#45;&gt;system_cpu_icache_cpu_side</title>
<path fill="none" stroke="black" d="M1116,-169.74C1116,-148.36 1116,-111.69 1116,-86.44"/>
<polygon fill="black" stroke="black" points="1119.5,-86.4 1116,-76.4 1112.5,-86.4 1119.5,-86.4"/>
</g>
<!-- system_cpu_dcache_port -->
<g id="node5" class="node">
<title>system_cpu_dcache_port</title>
<path fill="#959ead" stroke="#000000" d="M955.5,-206C955.5,-206 888.5,-206 888.5,-206 882.5,-206 876.5,-200 876.5,-194 876.5,-194 876.5,-182 876.5,-182 876.5,-176 882.5,-170 888.5,-170 888.5,-170 955.5,-170 955.5,-170 961.5,-170 967.5,-176 967.5,-182 967.5,-182 967.5,-194 967.5,-194 967.5,-200 961.5,-206 955.5,-206"/>
<text text-anchor="middle" x="922" y="-184.3" font-family="Arial" font-size="14.00" fill="#000000">dcache_port</text>
</g>
<!-- system_cpu_dcache_cpu_side -->
<g id="node8" class="node">
<title>system_cpu_dcache_cpu_side</title>
<path fill="#94918b" stroke="#000000" d="M945.5,-76C945.5,-76 898.5,-76 898.5,-76 892.5,-76 886.5,-70 886.5,-64 886.5,-64 886.5,-52 886.5,-52 886.5,-46 892.5,-40 898.5,-40 898.5,-40 945.5,-40 945.5,-40 951.5,-40 957.5,-46 957.5,-52 957.5,-52 957.5,-64 957.5,-64 957.5,-70 951.5,-76 945.5,-76"/>
<text text-anchor="middle" x="922" y="-54.3" font-family="Arial" font-size="14.00" fill="#000000">cpu_side</text>
</g>
<!-- system_cpu_dcache_port&#45;&gt;system_cpu_dcache_cpu_side -->
<g id="edge5" class="edge">
<title>system_cpu_dcache_port&#45;&gt;system_cpu_dcache_cpu_side</title>
<path fill="none" stroke="black" d="M922,-169.74C922,-148.36 922,-111.69 922,-86.44"/>
<polygon fill="black" stroke="black" points="925.5,-86.4 922,-76.4 918.5,-86.4 925.5,-86.4"/>
</g>
<!-- system_cpu_icache_mem_side -->
<g id="node7" class="node">
<title>system_cpu_icache_mem_side</title>
<path fill="#94918b" stroke="#000000" d="M1050,-76C1050,-76 994,-76 994,-76 988,-76 982,-70 982,-64 982,-64 982,-52 982,-52 982,-46 988,-40 994,-40 994,-40 1050,-40 1050,-40 1056,-40 1062,-46 1062,-52 1062,-52 1062,-64 1062,-64 1062,-70 1056,-76 1050,-76"/>
<text text-anchor="middle" x="1022" y="-54.3" font-family="Arial" font-size="14.00" fill="#000000">mem_side</text>
</g>
<!-- system_cpu_dcache_mem_side -->
<g id="node9" class="node">
<title>system_cpu_dcache_mem_side</title>
<path fill="#94918b" stroke="#000000" d="M856,-76C856,-76 800,-76 800,-76 794,-76 788,-70 788,-64 788,-64 788,-52 788,-52 788,-46 794,-40 800,-40 800,-40 856,-40 856,-40 862,-40 868,-46 868,-52 868,-52 868,-64 868,-64 868,-70 862,-76 856,-76"/>
<text text-anchor="middle" x="828" y="-54.3" font-family="Arial" font-size="14.00" fill="#000000">mem_side</text>
</g>
<!-- system_l2cache_cpu_side -->
<g id="node10" class="node">
<title>system_l2cache_cpu_side</title>
<path fill="#94918b" stroke="#000000" d="M586.5,-76C586.5,-76 539.5,-76 539.5,-76 533.5,-76 527.5,-70 527.5,-64 527.5,-64 527.5,-52 527.5,-52 527.5,-46 533.5,-40 539.5,-40 539.5,-40 586.5,-40 586.5,-40 592.5,-40 598.5,-46 598.5,-52 598.5,-52 598.5,-64 598.5,-64 598.5,-70 592.5,-76 586.5,-76"/>
<text text-anchor="middle" x="563" y="-54.3" font-family="Arial" font-size="14.00" fill="#000000">cpu_side</text>
</g>
<!-- system_l2cache_mem_side -->
<g id="node11" class="node">
<title>system_l2cache_mem_side</title>
<path fill="#94918b" stroke="#000000" d="M474,-206C474,-206 418,-206 418,-206 412,-206 406,-200 406,-194 406,-194 406,-182 406,-182 406,-176 412,-170 418,-170 418,-170 474,-170 474,-170 480,-170 486,-176 486,-182 486,-182 486,-194 486,-194 486,-200 480,-206 474,-206"/>
<text text-anchor="middle" x="446" y="-184.3" font-family="Arial" font-size="14.00" fill="#000000">mem_side</text>
</g>
<!-- system_l2cache_xbar_cpu_side_ports -->
<g id="node12" class="node">
<title>system_l2cache_xbar_cpu_side_ports</title>
<path fill="#586070" stroke="#000000" d="M736,-206C736,-206 652,-206 652,-206 646,-206 640,-200 640,-194 640,-194 640,-182 640,-182 640,-176 646,-170 652,-170 652,-170 736,-170 736,-170 742,-170 748,-176 748,-182 748,-182 748,-194 748,-194 748,-200 742,-206 736,-206"/>
<text text-anchor="middle" x="694" y="-184.3" font-family="Arial" font-size="14.00" fill="#000000">cpu_side_ports</text>
</g>
<!-- system_l2cache_xbar_cpu_side_ports&#45;&gt;system_cpu_icache_mem_side -->
<g id="edge6" class="edge">
<title>system_l2cache_xbar_cpu_side_ports&#45;&gt;system_cpu_icache_mem_side</title>
<path fill="none" stroke="black" d="M751.03,-166.91C756.73,-165.15 762.46,-163.48 768,-162 856.43,-138.41 891.41,-168.91 970,-122 988.51,-110.95 1003.37,-90.81 1012.39,-76.27"/>
<polygon fill="black" stroke="black" points="749.96,-163.58 741.49,-169.94 752.08,-170.25 749.96,-163.58"/>
</g>
<!-- system_l2cache_xbar_cpu_side_ports&#45;&gt;system_cpu_dcache_mem_side -->
<g id="edge7" class="edge">
<title>system_l2cache_xbar_cpu_side_ports&#45;&gt;system_cpu_dcache_mem_side</title>
<path fill="none" stroke="black" d="M722.39,-163.1C736.39,-151.06 753.36,-136.06 768,-122 783.58,-107.04 800.47,-89.13 812.35,-76.24"/>
<polygon fill="black" stroke="black" points="719.86,-160.66 714.54,-169.82 724.41,-165.98 719.86,-160.66"/>
</g>
<!-- system_l2cache_xbar_mem_side_ports -->
<g id="node13" class="node">
<title>system_l2cache_xbar_mem_side_ports</title>
<path fill="#586070" stroke="#000000" d="M610,-206C610,-206 516,-206 516,-206 510,-206 504,-200 504,-194 504,-194 504,-182 504,-182 504,-176 510,-170 516,-170 516,-170 610,-170 610,-170 616,-170 622,-176 622,-182 622,-182 622,-194 622,-194 622,-200 616,-206 610,-206"/>
<text text-anchor="middle" x="563" y="-184.3" font-family="Arial" font-size="14.00" fill="#000000">mem_side_ports</text>
</g>
<!-- system_l2cache_xbar_mem_side_ports&#45;&gt;system_l2cache_cpu_side -->
<g id="edge8" class="edge">
<title>system_l2cache_xbar_mem_side_ports&#45;&gt;system_l2cache_cpu_side</title>
<path fill="none" stroke="black" d="M563,-169.74C563,-148.36 563,-111.69 563,-86.44"/>
<polygon fill="black" stroke="black" points="566.5,-86.4 563,-76.4 559.5,-86.4 566.5,-86.4"/>
</g>
<!-- system_l3cache_cpu_side -->
<g id="node14" class="node">
<title>system_l3cache_cpu_side</title>
<path fill="#94918b" stroke="#000000" d="M212.5,-206C212.5,-206 165.5,-206 165.5,-206 159.5,-206 153.5,-200 153.5,-194 153.5,-194 153.5,-182 153.5,-182 153.5,-176 159.5,-170 165.5,-170 165.5,-170 212.5,-170 212.5,-170 218.5,-170 224.5,-176 224.5,-182 224.5,-182 224.5,-194 224.5,-194 224.5,-200 218.5,-206 212.5,-206"/>
<text text-anchor="middle" x="189" y="-184.3" font-family="Arial" font-size="14.00" fill="#000000">cpu_side</text>
</g>
<!-- system_l3cache_xbar_cpu_side_ports -->
<g id="node16" class="node">
<title>system_l3cache_xbar_cpu_side_ports</title>
<path fill="#586070" stroke="#000000" d="M362,-350C362,-350 278,-350 278,-350 272,-350 266,-344 266,-338 266,-338 266,-326 266,-326 266,-320 272,-314 278,-314 278,-314 362,-314 362,-314 368,-314 374,-320 374,-326 374,-326 374,-338 374,-338 374,-344 368,-350 362,-350"/>
<text text-anchor="middle" x="320" y="-328.3" font-family="Arial" font-size="14.00" fill="#000000">cpu_side_ports</text>
</g>
<!-- system_l3cache_xbar_cpu_side_ports&#45;&gt;system_l2cache_mem_side -->
<g id="edge9" class="edge">
<title>system_l3cache_xbar_cpu_side_ports&#45;&gt;system_l2cache_mem_side</title>
<path fill="none" stroke="black" d="M379.94,-308.93C385.02,-305.72 389.81,-302.09 394,-298 420.58,-272.1 435.26,-229.91 441.79,-206.33"/>
<polygon fill="black" stroke="black" points="378.11,-305.95 371.18,-313.96 381.59,-312.02 378.11,-305.95"/>
</g>
<!-- system_l3cache_xbar_mem_side_ports -->
<g id="node17" class="node">
<title>system_l3cache_xbar_mem_side_ports</title>
<path fill="#586070" stroke="#000000" d="M236,-350C236,-350 142,-350 142,-350 136,-350 130,-344 130,-338 130,-338 130,-326 130,-326 130,-320 136,-314 142,-314 142,-314 236,-314 236,-314 242,-314 248,-320 248,-326 248,-326 248,-338 248,-338 248,-344 242,-350 236,-350"/>
<text text-anchor="middle" x="189" y="-328.3" font-family="Arial" font-size="14.00" fill="#000000">mem_side_ports</text>
</g>
<!-- system_l3cache_xbar_mem_side_ports&#45;&gt;system_l3cache_cpu_side -->
<g id="edge10" class="edge">
<title>system_l3cache_xbar_mem_side_ports&#45;&gt;system_l3cache_cpu_side</title>
<path fill="none" stroke="black" d="M189,-313.87C189,-289.67 189,-245.21 189,-216.39"/>
<polygon fill="black" stroke="black" points="192.5,-216.19 189,-206.19 185.5,-216.19 192.5,-216.19"/>
</g>
</g>
</svg>
